<mxfile host="app.diagrams.net" agent="Mozilla/5.0 (Windows NT 10.0; Win64; x64) AppleWebKit/537.36 (KHTML, like Gecko) Chrome/133.0.0.0 Safari/537.36 Edg/133.0.0.0" version="26.1.0">
  <diagram name="Page-1" id="q1mPeSUzLPqD7VbrRvrV">
    <mxGraphModel dx="1055" dy="531" grid="1" gridSize="10" guides="1" tooltips="1" connect="1" arrows="1" fold="1" page="1" pageScale="1" pageWidth="850" pageHeight="1100" math="0" shadow="0">
      <root>
        <mxCell id="0" />
        <mxCell id="1" parent="0" />
        <mxCell id="Dkxi8dOFSHRw9v3isch2-1" value="" style="edgeStyle=orthogonalEdgeStyle;rounded=0;orthogonalLoop=1;jettySize=auto;html=1;" edge="1" parent="1" source="Dkxi8dOFSHRw9v3isch2-2" target="Dkxi8dOFSHRw9v3isch2-4">
          <mxGeometry relative="1" as="geometry" />
        </mxCell>
        <mxCell id="Dkxi8dOFSHRw9v3isch2-2" value="Entry" style="ellipse;whiteSpace=wrap;html=1;fillColor=#d5e8d4;strokeColor=light-dark(#000000,#446E2C);strokeWidth=0.5;" vertex="1" parent="1">
          <mxGeometry x="330" y="100" width="60" height="30" as="geometry" />
        </mxCell>
        <mxCell id="Dkxi8dOFSHRw9v3isch2-3" value="" style="edgeStyle=orthogonalEdgeStyle;rounded=0;orthogonalLoop=1;jettySize=auto;html=1;" edge="1" parent="1" source="Dkxi8dOFSHRw9v3isch2-4">
          <mxGeometry relative="1" as="geometry">
            <mxPoint x="360" y="250" as="targetPoint" />
          </mxGeometry>
        </mxCell>
        <mxCell id="Dkxi8dOFSHRw9v3isch2-4" value="(0) string foo(int x)" style="rounded=0;whiteSpace=wrap;html=1;fillColor=#dae8fc;strokeColor=light-dark(#000000,#446E2C);strokeWidth=0.5;" vertex="1" parent="1">
          <mxGeometry x="312.5" y="160" width="95" height="50" as="geometry" />
        </mxCell>
        <mxCell id="Dkxi8dOFSHRw9v3isch2-20" value="(1) x" style="rhombus;whiteSpace=wrap;html=1;fillColor=#fff2cc;strokeColor=light-dark(#000000,#446E2C);strokeWidth=0.5;" vertex="1" parent="1">
          <mxGeometry x="310" y="250" width="100" height="50" as="geometry" />
        </mxCell>
        <mxCell id="Dkxi8dOFSHRw9v3isch2-39" style="edgeStyle=orthogonalEdgeStyle;rounded=0;orthogonalLoop=1;jettySize=auto;html=1;entryX=0.5;entryY=0;entryDx=0;entryDy=0;" edge="1" parent="1" source="Dkxi8dOFSHRw9v3isch2-21" target="Dkxi8dOFSHRw9v3isch2-38">
          <mxGeometry relative="1" as="geometry">
            <Array as="points">
              <mxPoint x="128" y="430" />
              <mxPoint x="360" y="430" />
            </Array>
          </mxGeometry>
        </mxCell>
        <mxCell id="Dkxi8dOFSHRw9v3isch2-21" value="(3) res = &#39;A&#39;" style="rounded=0;whiteSpace=wrap;html=1;fillColor=#dae8fc;strokeColor=light-dark(#000000, #5c79a3);strokeWidth=0.5;" vertex="1" parent="1">
          <mxGeometry x="80" y="360" width="95" height="50" as="geometry" />
        </mxCell>
        <mxCell id="Dkxi8dOFSHRw9v3isch2-40" style="edgeStyle=orthogonalEdgeStyle;rounded=0;orthogonalLoop=1;jettySize=auto;html=1;entryX=0.5;entryY=0;entryDx=0;entryDy=0;" edge="1" parent="1" source="Dkxi8dOFSHRw9v3isch2-23" target="Dkxi8dOFSHRw9v3isch2-38">
          <mxGeometry relative="1" as="geometry">
            <Array as="points">
              <mxPoint x="282" y="430" />
              <mxPoint x="360" y="430" />
            </Array>
          </mxGeometry>
        </mxCell>
        <mxCell id="Dkxi8dOFSHRw9v3isch2-23" value="(4)&amp;nbsp;&lt;span style=&quot;background-color: transparent; color: light-dark(rgb(0, 0, 0), rgb(255, 255, 255));&quot;&gt;res = &#39;B&#39;&lt;/span&gt;" style="rounded=0;whiteSpace=wrap;html=1;fillColor=#dae8fc;strokeColor=light-dark(#000000, #5c79a3);strokeWidth=0.5;" vertex="1" parent="1">
          <mxGeometry x="235" y="360" width="95" height="50" as="geometry" />
        </mxCell>
        <mxCell id="Dkxi8dOFSHRw9v3isch2-41" style="edgeStyle=orthogonalEdgeStyle;rounded=0;orthogonalLoop=1;jettySize=auto;html=1;entryX=0.5;entryY=0;entryDx=0;entryDy=0;" edge="1" parent="1" source="Dkxi8dOFSHRw9v3isch2-24" target="Dkxi8dOFSHRw9v3isch2-38">
          <mxGeometry relative="1" as="geometry">
            <Array as="points">
              <mxPoint x="438" y="430" />
              <mxPoint x="360" y="430" />
            </Array>
          </mxGeometry>
        </mxCell>
        <mxCell id="Dkxi8dOFSHRw9v3isch2-24" value="(5) res = &#39;C&#39;" style="rounded=0;whiteSpace=wrap;html=1;fillColor=#dae8fc;strokeColor=light-dark(#000000, #5c79a3);strokeWidth=0.5;" vertex="1" parent="1">
          <mxGeometry x="390" y="360" width="95" height="50" as="geometry" />
        </mxCell>
        <mxCell id="Dkxi8dOFSHRw9v3isch2-42" style="edgeStyle=orthogonalEdgeStyle;rounded=0;orthogonalLoop=1;jettySize=auto;html=1;" edge="1" parent="1" source="Dkxi8dOFSHRw9v3isch2-25">
          <mxGeometry relative="1" as="geometry">
            <mxPoint x="360" y="460" as="targetPoint" />
            <Array as="points">
              <mxPoint x="598" y="430" />
              <mxPoint x="360" y="430" />
            </Array>
          </mxGeometry>
        </mxCell>
        <mxCell id="Dkxi8dOFSHRw9v3isch2-25" value="(6) haven&#39;t check" style="rounded=0;whiteSpace=wrap;html=1;fillColor=#dae8fc;strokeColor=light-dark(#000000, #5c79a3);strokeWidth=0.5;" vertex="1" parent="1">
          <mxGeometry x="550" y="360" width="95" height="50" as="geometry" />
        </mxCell>
        <mxCell id="Dkxi8dOFSHRw9v3isch2-29" value="" style="endArrow=classic;html=1;rounded=0;entryX=0.5;entryY=0;entryDx=0;entryDy=0;exitX=0.5;exitY=1;exitDx=0;exitDy=0;" edge="1" parent="1" source="Dkxi8dOFSHRw9v3isch2-20" target="Dkxi8dOFSHRw9v3isch2-23">
          <mxGeometry width="50" height="50" relative="1" as="geometry">
            <mxPoint x="310" y="340" as="sourcePoint" />
            <mxPoint x="360" y="290" as="targetPoint" />
          </mxGeometry>
        </mxCell>
        <mxCell id="Dkxi8dOFSHRw9v3isch2-30" value="" style="endArrow=classic;html=1;rounded=0;entryX=0.501;entryY=0.026;entryDx=0;entryDy=0;exitX=0.5;exitY=1;exitDx=0;exitDy=0;entryPerimeter=0;" edge="1" parent="1" source="Dkxi8dOFSHRw9v3isch2-20" target="Dkxi8dOFSHRw9v3isch2-21">
          <mxGeometry width="50" height="50" relative="1" as="geometry">
            <mxPoint x="204" y="300" as="sourcePoint" />
            <mxPoint x="130" y="358" as="targetPoint" />
          </mxGeometry>
        </mxCell>
        <mxCell id="Dkxi8dOFSHRw9v3isch2-31" value="" style="endArrow=classic;html=1;rounded=0;entryX=0.5;entryY=0;entryDx=0;entryDy=0;exitX=0.5;exitY=1;exitDx=0;exitDy=0;" edge="1" parent="1" source="Dkxi8dOFSHRw9v3isch2-20" target="Dkxi8dOFSHRw9v3isch2-24">
          <mxGeometry width="50" height="50" relative="1" as="geometry">
            <mxPoint x="377" y="322" as="sourcePoint" />
            <mxPoint x="303" y="380" as="targetPoint" />
          </mxGeometry>
        </mxCell>
        <mxCell id="Dkxi8dOFSHRw9v3isch2-32" value="" style="endArrow=classic;html=1;rounded=0;entryX=0.5;entryY=0;entryDx=0;entryDy=0;exitX=0.5;exitY=1;exitDx=0;exitDy=0;" edge="1" parent="1" source="Dkxi8dOFSHRw9v3isch2-20" target="Dkxi8dOFSHRw9v3isch2-25">
          <mxGeometry width="50" height="50" relative="1" as="geometry">
            <mxPoint x="387" y="332" as="sourcePoint" />
            <mxPoint x="313" y="390" as="targetPoint" />
          </mxGeometry>
        </mxCell>
        <mxCell id="Dkxi8dOFSHRw9v3isch2-33" value="x = 65" style="text;html=1;align=center;verticalAlign=middle;whiteSpace=wrap;rounded=0;rotation=-15;" vertex="1" parent="1">
          <mxGeometry x="130" y="330" width="60" height="30" as="geometry" />
        </mxCell>
        <mxCell id="Dkxi8dOFSHRw9v3isch2-34" value="x = 66" style="text;html=1;align=center;verticalAlign=middle;whiteSpace=wrap;rounded=0;rotation=-35;" vertex="1" parent="1">
          <mxGeometry x="270" y="320" width="60" height="30" as="geometry" />
        </mxCell>
        <mxCell id="Dkxi8dOFSHRw9v3isch2-35" value="x = 67" style="text;html=1;align=center;verticalAlign=middle;whiteSpace=wrap;rounded=0;rotation=35;" vertex="1" parent="1">
          <mxGeometry x="390" y="320" width="60" height="30" as="geometry" />
        </mxCell>
        <mxCell id="Dkxi8dOFSHRw9v3isch2-36" value="x = default" style="text;html=1;align=center;verticalAlign=middle;whiteSpace=wrap;rounded=0;rotation=15;" vertex="1" parent="1">
          <mxGeometry x="520" y="320" width="60" height="30" as="geometry" />
        </mxCell>
        <mxCell id="Dkxi8dOFSHRw9v3isch2-44" value="" style="edgeStyle=orthogonalEdgeStyle;rounded=0;orthogonalLoop=1;jettySize=auto;html=1;" edge="1" parent="1" source="Dkxi8dOFSHRw9v3isch2-38" target="Dkxi8dOFSHRw9v3isch2-43">
          <mxGeometry relative="1" as="geometry" />
        </mxCell>
        <mxCell id="Dkxi8dOFSHRw9v3isch2-38" value="(7) return res" style="rounded=0;whiteSpace=wrap;html=1;fillColor=#dae8fc;strokeColor=light-dark(#000000, #5c79a3);strokeWidth=0.5;" vertex="1" parent="1">
          <mxGeometry x="312.5" y="460" width="95" height="50" as="geometry" />
        </mxCell>
        <mxCell id="Dkxi8dOFSHRw9v3isch2-43" value="end" style="ellipse;whiteSpace=wrap;html=1;fillColor=#d5e8d4;strokeColor=light-dark(#000000,#446E2C);strokeWidth=0.5;" vertex="1" parent="1">
          <mxGeometry x="330" y="535" width="60" height="30" as="geometry" />
        </mxCell>
      </root>
    </mxGraphModel>
  </diagram>
</mxfile>
